<?xml version="1.0" encoding="utf-8"?>
<!-- Generator: Adobe Illustrator 17.1.0, SVG Export Plug-In . SVG Version: 6.00 Build 0)  -->
<!DOCTYPE svg PUBLIC "-//W3C//DTD SVG 1.1//EN" "http://www.w3.org/Graphics/SVG/1.1/DTD/svg11.dtd">
<svg version="1.1" id="Layer_1" xmlns="http://www.w3.org/2000/svg" xmlns:xlink="http://www.w3.org/1999/xlink" x="0px" y="0px"
	 viewBox="0 0 296 127" enable-background="new 0 0 296 127" xml:space="preserve">
<path fill="#999A99" d="M118.1,28.4c-4.6-14.2-20.9-13.9-27.3-12.8C78.7,17.7,62.7,24.2,60,50.9c0,0-1.1,20.6-2.7,31.6
	c-1.6,11-6.3,17-10.8,17.1c0.4-1.1,0.7-2.2,0.8-3.4c0.4-3-1.1-5.2-4.1-5.6c-2.4-0.3-4.7,1.9-5,4.2c-0.5,3.7,2.1,7.1,7.9,7.8
	c16.4,2.1,21-15,22.3-22.6c0.2-1,0.3-4.4,0.5-4.4l14.5-0.1c0,0,0,1.8-0.1,2c-0.1,2.4,1.2,3.6,3.6,3.8c1.9,0.1,3.7-2,3.8-3.9
	c0.2-2.9-2.1-5.2-6.7-6c-1-0.2-10.1,0-14.4,0.1c0.9-6.7,1.4-12.5,1.9-19c1.7-19.4,4.6-26.8,17.2-31.8c10.7-4.2,18.5,3.9,20.8,10.6
	c2.6,7.3-1.2,15.9-5.2,17.7c0-1.2-0.2-2.3-0.5-3.5c-1-3.5-3.4-5.6-6.8-4.6c-2.6,0.7-4.1,3.4-3.3,6.3c1.1,4.1,5.2,6.4,11.4,4.7
	C115.9,49.2,121.8,39.7,118.1,28.4z"/>
<path fill="#999A99" d="M217.8,85.9c0.2,0,4.3,0.4,9.1-1.9c4.2-2,6.9-3.8,7.7-7.9c-0.5-4.7-3.8-7.7-8.2-7.9
	c-10.1-0.5-18,9.6-18.4,19c-0.4,7.9,4.5,12.2,11.7,12.6c5.7,0.3,9.8-2.6,12.4-6.7l-1.1-1.2c-3.1,1.7-4.7,2.3-7,2.2
	c-4.1-0.2-6.3-2.9-6.1-7.3C217.8,86.4,217.8,86.1,217.8,85.9z M226.2,72.4c2.6,0,4.4,1.6,3.8,3.7c-1.3,4-10.6,7.2-11.9,7.6
	C218.9,77.2,221.6,72.5,226.2,72.4z"/>
<path fill="#999A99" d="M238.3,92.2l6.8-32.3c0.7-2.6-4.5-2.8-4.5-2.8l0.3-1.9l13.6-2.8l1.3,0.8l-8.1,38c-0.8,3.3-0.6,3.4,4.8,3.8
	l0.3,1.6c-3.2,1.8-6.3,2.9-9.3,2.9C238.3,99.7,237.2,96.9,238.3,92.2"/>
<path fill="#999A99" d="M151.7,95.3c0-0.9,0.1-1.8,0.4-2.9l2.5-10.6c0.9-3.7,0.2-5.6-2.4-5.6c-1.5,0-3.5,0.8-5.8,2.2l-4.4,20.7h-9.2
	l4.7-22.1l-4.2-2.8l0.3-1.9l13-2.8l1.3,0.8l-1.8,5.4l0.6,0.1c4.3-3.8,7.6-6.1,11.5-6.1c5.9,0,7.3,5.4,5.8,11.6l-2.4,10.2
	c-0.8,3.2-0.5,3.5,4.4,3.8l0.3,1.6c-3,1.8-6.1,2.9-9.1,2.9C153.3,99.9,151.7,98.3,151.7,95.3"/>
<path fill="#999A99" d="M109.9,74.1c0,0.9-0.1,1.8-0.4,2.9L107,87.6c-0.9,3.7-0.2,5.6,2.4,5.6c1.5,0,3.5-0.8,5.8-2.2l4.4-20.7h9.2
	l-4.7,22.1l4.2,2.8l-0.3,1.9l-13,2.8l-1.3-0.8l1.8-5.4l-0.6-0.1c-4.3,3.8-7.6,6.1-11.5,6.1c-5.9,0-7.3-5.4-5.8-11.6l2.4-10.2
	c0.8-3.2,0.5-3.5-4.4-3.8l-0.3-1.6c3-1.8,6.1-2.9,9.1-2.9C108.3,69.5,109.9,71.2,109.9,74.1"/>
<path fill="#999A99" d="M188.7,95.3c0-0.9,0.1-1.8,0.4-2.9l2.5-10.6c0.9-3.7,0.2-5.6-2.4-5.6c-1.5,0-3.5,0.8-5.8,2.2l-4.4,20.7h-9.2
	l4.7-22.1l-4.2-2.8l0.3-1.9l13-2.8l1.3,0.8l-1.8,5.4l0.6,0.1c4.3-3.8,7.6-6.1,11.5-6.1c5.9,0,7.3,5.4,5.8,11.6l-2.4,10.2
	c-0.8,3.2-0.5,3.5,4.4,3.8l0.3,1.6c-3,1.8-6.1,2.9-9.1,2.9C190.2,99.9,188.7,98.3,188.7,95.3"/>
<path fill="#E3E3E2" d="M121.1,26.4c-4.6-14.2-20.9-13.9-27.3-12.8C81.7,15.7,65.7,22.2,63,48.9c0,0-1.1,20.6-2.7,31.6
	c-1.6,11-6.3,17-10.8,17.1c0.4-1.1,0.7-2.2,0.8-3.4c0.4-3-1.1-5.2-4.1-5.6c-2.4-0.3-4.7,1.9-5,4.2c-0.5,3.7,2.1,7.1,7.9,7.8
	c16.4,2.1,21-15,22.3-22.6c0.2-1,0.3-4.4,0.5-4.4l14.5-0.1c0,0,0,1.8-0.1,2c-0.1,2.4,1.2,3.6,3.6,3.8c1.9,0.1,3.7-2,3.8-3.9
	c0.2-2.9-2.1-5.2-6.7-6c-1-0.2-10.1,0-14.4,0.1c0.9-6.7,1.4-12.5,1.9-19c1.7-19.4,4.6-26.8,17.2-31.8c10.7-4.2,18.5,3.9,20.8,10.6
	c2.6,7.3-1.2,15.9-5.2,17.7c0-1.2-0.2-2.3-0.5-3.5c-1-3.5-3.4-5.6-6.8-4.6c-2.6,0.7-4.1,3.4-3.3,6.3c1.1,4.1,5.2,6.4,11.4,4.7
	C118.9,47.2,124.8,37.7,121.1,26.4z"/>
<path fill="#E3E3E2" d="M220.8,83.9c0.2,0,4.3,0.4,9.1-1.9c4.2-2,6.9-3.8,7.7-7.9c-0.5-4.7-3.8-7.7-8.2-7.9
	c-10.1-0.5-18,9.6-18.4,19c-0.4,7.9,4.5,12.2,11.7,12.6c5.7,0.3,9.8-2.6,12.4-6.7l-1.1-1.2c-3.1,1.7-4.7,2.3-7,2.2
	c-4.1-0.2-6.3-2.9-6.1-7.3C220.8,84.4,220.8,84.1,220.8,83.9z M229.2,70.4c2.6,0,4.4,1.6,3.8,3.7c-1.3,4-10.6,7.2-11.9,7.6
	C221.9,75.2,224.6,70.5,229.2,70.4z"/>
<path fill="#E3E3E2" d="M241.3,90.2l6.8-32.3c0.7-2.6-4.5-2.8-4.5-2.8l0.3-1.9l13.6-2.8l1.3,0.8l-8.1,38c-0.8,3.3-0.6,3.4,4.8,3.8
	l0.3,1.6c-3.2,1.8-6.3,2.9-9.3,2.9C241.3,97.7,240.2,94.9,241.3,90.2"/>
<path fill="#E3E3E2" d="M154.7,93.3c0-0.9,0.1-1.8,0.4-2.9l2.5-10.6c0.9-3.7,0.2-5.6-2.4-5.6c-1.5,0-3.5,0.8-5.8,2.2l-4.4,20.7h-9.2
	l4.7-22.1l-4.2-2.8l0.3-1.9l13-2.8l1.3,0.8l-1.8,5.4l0.6,0.1c4.3-3.8,7.6-6.1,11.5-6.1c5.9,0,7.3,5.4,5.8,11.6l-2.4,10.2
	c-0.8,3.2-0.5,3.5,4.4,3.8l0.3,1.6c-3,1.8-6.1,2.9-9.1,2.9C156.3,97.9,154.7,96.3,154.7,93.3"/>
<path fill="#E3E3E2" d="M112.9,72.1c0,0.9-0.1,1.8-0.4,2.9L110,85.6c-0.9,3.7-0.2,5.6,2.4,5.6c1.5,0,3.5-0.8,5.8-2.2l4.4-20.7h9.2
	l-4.7,22.1l4.2,2.8l-0.3,1.9l-13,2.8l-1.3-0.8l1.8-5.4l-0.6-0.1c-4.3,3.8-7.6,6.1-11.5,6.1c-5.9,0-7.3-5.4-5.8-11.6l2.4-10.2
	c0.8-3.2,0.5-3.5-4.4-3.8l-0.3-1.6c3-1.8,6.1-2.9,9.1-2.9C111.3,67.5,112.9,69.2,112.9,72.1"/>
<path fill="#E3E3E2" d="M191.7,93.3c0-0.9,0.1-1.8,0.4-2.9l2.5-10.6c0.9-3.7,0.2-5.6-2.4-5.6c-1.5,0-3.5,0.8-5.8,2.2l-4.4,20.7h-9.2
	l4.7-22.1l-4.2-2.8l0.3-1.9l13-2.8l1.3,0.8l-1.8,5.4l0.6,0.1c4.3-3.8,7.6-6.1,11.5-6.1c5.9,0,7.3,5.4,5.8,11.6l-2.4,10.2
	c-0.8,3.2-0.5,3.5,4.4,3.8l0.3,1.6c-3,1.8-6.1,2.9-9.1,2.9C193.2,97.9,191.7,96.3,191.7,93.3"/>
</svg>
